HIERARCHY
ROOT Hips
{
	OFFSET 0.000000 0.000000 0.000000 
	CHANNELS 6 Xposition Yposition Zposition Zrotation Yrotation Xrotation
	JOINT LeftUpLeg
	{
		OFFSET 1.363060 -1.794630 0.839290 
		CHANNELS 3 Zrotation Yrotation Xrotation
		JOINT LeftLeg
		{
			OFFSET 2.448110 -6.726130 0.000000 
			CHANNELS 3 Zrotation Yrotation Xrotation
			JOINT LeftFoot
			{
				OFFSET 2.562200 -7.039590 0.000000 
				CHANNELS 3 Zrotation Yrotation Xrotation
				JOINT LeftToeBase
				{
					OFFSET 0.157640 -0.433110 2.322550 
					CHANNELS 3 Zrotation Yrotation Xrotation
					End Site
					{
						OFFSET 0.000000 0.000000 0.000000 
					}
				}
			}
		}
	}
	JOINT RightUpLeg
	{
		OFFSET -1.305520 -1.794630 0.839290 
		CHANNELS 3 Zrotation Yrotation Xrotation
		JOINT RightLeg
		{
			OFFSET -2.542530 -6.985550 0.000000 
			CHANNELS 3 Zrotation Yrotation Xrotation
			JOINT RightFoot
			{
				OFFSET -2.568260 -7.056230 0.000000 
				CHANNELS 3 Zrotation Yrotation Xrotation
				JOINT RightToeBase
				{
					OFFSET -0.164730 -0.452590 2.363150 
					CHANNELS 3 Zrotation Yrotation Xrotation
					End Site
					{
						OFFSET 0.000000 0.000000 0.000000 
					}
				}
			}
		}
	}
	JOINT Spine
	{
		OFFSET 0.028270 2.035590 -0.193380 
		CHANNELS 3 Zrotation Yrotation Xrotation
		JOINT Spine1
		{
			OFFSET 0.056720 2.048850 -0.042750 
			CHANNELS 3 Zrotation Yrotation Xrotation
			JOINT Neck1
			{
				OFFSET -0.054170 1.746240 0.172020 
				CHANNELS 3 Zrotation Yrotation Xrotation
				JOINT Head
				{
					OFFSET 0.104070 1.761360 -0.123970 
					CHANNELS 3 Zrotation Yrotation Xrotation
					End Site
					{
						OFFSET 0.000000 0.000000 0.000000 
					}
				}
			}
			JOINT LeftArm
			{
				OFFSET 3.362410 1.200890 -0.311210 
				CHANNELS 3 Zrotation Yrotation Xrotation
				JOINT LeftForeArm
				{
					OFFSET 4.983000 -0.000000 -0.000000 
					CHANNELS 3 Zrotation Yrotation Xrotation
					JOINT LeftHand
					{
						OFFSET 3.483560 -0.000000 -0.000000 
						CHANNELS 3 Zrotation Yrotation Xrotation
						JOINT LeftHandIndex1
						{
							OFFSET 0.715260 -0.000000 -0.000000 
							CHANNELS 3 Zrotation Yrotation Xrotation
							End Site
							{
								OFFSET 0.000000 0.000000 0.000000 
							}
						}
					}
				}
			}
			JOINT RightArm
			{
				OFFSET -3.136600 1.374050 -0.404650 
				CHANNELS 3 Zrotation Yrotation Xrotation
				JOINT RightForeArm
				{
					OFFSET -5.241900 -0.000000 -0.000000 
					CHANNELS 3 Zrotation Yrotation Xrotation
					JOINT RightHand
					{
						OFFSET -3.444170 -0.000000 -0.000000 
						CHANNELS 3 Zrotation Yrotation Xrotation
						JOINT RightHandIndex1
						{
							OFFSET -0.622530 -0.000000 -0.000000 
							CHANNELS 3 Zrotation Yrotation Xrotation
							End Site
							{
								OFFSET 0.000000 0.000000 0.000000 
							}
						}
					}
				}
			}
		}
	}
}
MOTION
Frames: 12
Frame Time: 0.041667
0.648381 18.359554 9.959362 -10.441522 1.034025 14.960268 -20.577047 -47.137313 22.060945 -3.906032 -2.499993 -3.689291 -14.753009 46.010511 -33.922466 0.509800 4.576900 12.705700 24.530330 27.499511 0.538459 3.654599 -0.625684 2.156620 8.333035 -26.502981 -3.088018 -0.001200 -0.227700 0.625700 23.406971 8.256283 -29.741874 -12.100021 -1.427704 -8.491616 18.454356 -19.456207 16.638185 3.927500 -8.820700 6.129500 -88.214692 14.300290 1.164124 9.293342 -10.236628 -1.424994 0.258182 2.127204 35.204332 -7.125000 0.000000 0.000000 79.215346 -15.573600 2.129976 -10.032515 13.724651 -1.655528 1.148672 1.375377 48.120988 7.125000 0.000000 0.000000 
0.648276 18.359344 9.959046 -10.418227 1.022351 14.958092 -20.590582 -47.071102 22.027252 -3.903798 -2.499970 -3.689753 -14.814704 46.073063 -33.809104 0.487800 4.478500 12.426900 24.495859 27.417829 0.504839 3.653461 -0.620390 2.140027 8.314161 -26.462035 -2.977099 -0.000400 -0.129000 0.354400 23.378293 8.257901 -29.768258 -12.074430 -1.423040 -8.504218 18.432676 -19.454786 16.666594 3.923400 -8.819500 6.136600 -88.221061 14.328125 1.256668 9.309713 -10.257822 -1.430970 0.260016 2.131901 35.009724 -7.125000 0.000000 0.000000 79.195294 -15.561397 1.918260 -10.026806 13.720053 -1.653754 1.143697 1.380427 48.351479 7.125000 0.000000 0.000000 
0.647749 18.359870 9.957465 -10.428711 1.017023 14.972709 -20.569507 -47.112915 22.033752 -3.905839 -2.497074 -3.684668 -14.760102 46.019654 -33.914159 0.502600 4.544700 12.614400 24.523215 27.472102 0.520170 3.653875 -0.623134 2.141243 8.334780 -26.522358 -3.005452 -0.002700 -0.338000 0.928700 23.318522 8.272135 -29.867957 -12.050554 -1.417386 -8.536023 18.218532 -19.437651 16.644939 3.872200 -8.823000 6.115300 -88.213929 14.372252 1.377544 9.317826 -10.268014 -1.430551 0.251368 2.121379 34.856979 -7.125000 0.000000 0.000000 79.215041 -15.585451 1.748241 -10.027184 13.723976 -1.654123 1.142936 1.381020 48.548713 7.125000 0.000000 0.000000 
0.647011 18.360502 9.955675 -10.482856 1.023644 14.994925 -20.461117 -47.145432 21.984814 -3.906691 -2.496348 -3.685982 -14.711932 45.964392 -33.990694 0.523300 4.636200 12.873900 24.584096 27.569366 0.533314 3.654497 -0.626155 2.144628 8.354279 -26.577250 -3.077198 -0.017700 -0.859100 2.361100 23.362889 8.296424 -29.897432 -12.056389 -1.421117 -8.555685 17.987625 -19.392344 16.677305 3.815200 -8.807900 6.106500 -88.216640 14.396914 1.531780 9.336056 -10.289340 -1.431068 0.239574 2.103243 34.735133 -7.125000 0.000000 0.000000 79.211440 -15.575799 1.679660 -10.003362 13.695160 -1.648332 1.144905 1.378969 48.632788 7.125000 0.000000 0.000000 
0.642482 18.363347 9.957465 -10.032949 0.815098 15.190605 -20.931248 -47.374964 22.018311 -3.909742 -2.471923 -3.662778 -14.740060 46.135498 -34.338918 0.532400 4.675400 12.985100 24.012017 27.781493 0.396327 3.656573 -0.626071 2.114162 8.412567 -26.682837 -3.059245 -0.034200 -1.192900 3.279800 22.582867 8.207566 -30.360946 -11.660279 -1.315207 -8.283974 17.897604 -19.402954 16.663176 3.767600 -8.812100 6.082000 -88.043208 14.519211 2.883387 9.450918 -10.403957 -1.442161 0.139816 2.033319 33.668085 -7.125000 0.000000 0.000000 79.112424 -15.466616 1.796929 -9.812239 13.441795 -1.599903 1.154890 1.368313 48.430357 7.125000 0.000000 0.000000 
0.633844 18.373565 9.977164 -9.928605 0.821354 15.755392 -20.597112 -47.831774 21.548187 -3.889546 -2.440781 -3.717844 -14.924388 46.456937 -34.465786 0.514300 4.596400 12.761000 23.761540 27.975226 -0.008506 3.659738 -0.609419 2.033895 8.462888 -26.809496 -3.097428 -0.037000 -1.241900 3.414500 21.776251 8.184418 -31.041452 -11.409860 -1.196876 -7.529174 17.814393 -19.520133 16.435373 3.699800 -8.872800 6.031800 -87.716614 14.695613 5.280676 9.628455 -10.593906 -1.462064 -0.031045 1.907982 31.755339 -7.125000 0.000000 0.000000 79.074280 -15.256236 2.083178 -9.521902 13.028187 -1.528131 1.176681 1.343225 47.899023 7.125000 0.000000 0.000000 
0.628261 18.378410 9.983801 -9.667184 0.745567 16.061568 -20.609861 -48.012055 21.264513 -3.880506 -2.410438 -3.707596 -14.981771 46.579316 -34.543012 0.504600 4.553800 12.640100 23.408374 28.086030 -0.245705 3.660757 -0.607207 1.998585 8.509962 -26.915351 -3.060897 -0.033600 -1.182800 3.252000 21.009497 8.100488 -31.575962 -11.106958 -1.110137 -7.173214 17.623730 -19.590061 16.387435 3.622800 -8.911300 6.007300 -87.526316 14.781301 6.376827 9.711728 -10.677794 -1.469887 -0.106307 1.841660 30.865175 -7.125000 0.000000 0.000000 79.063367 -15.196341 2.229724 -9.383839 12.836758 -1.494074 1.186620 1.324929 47.622415 7.125000 0.000000 0.000000 
0.627734 18.379148 9.983590 -9.522857 0.714056 16.130418 -20.677906 -47.974515 21.145686 -3.877901 -2.396474 -3.683233 -14.993166 46.587329 -34.485609 0.491400 4.494700 12.472700 23.234358 28.054829 -0.314056 3.661757 -0.600829 1.976162 8.518397 -26.925436 -3.020368 -0.031600 -1.146900 3.153200 20.710300 8.032111 -31.728758 -10.992278 -1.092556 -7.112903 17.644765 -19.599533 16.483704 3.619200 -8.907000 6.031800 -87.487021 14.761763 6.340833 9.714669 -10.676348 -1.469374 -0.100851 1.839101 30.889983 -7.125000 0.000000 0.000000 79.073224 -15.195048 2.127058 -9.374448 12.819552 -1.489719 1.187756 1.315628 47.744996 7.125000 0.000000 0.000000 
0.627207 18.378937 9.984222 -9.458134 0.661644 16.158285 -20.796665 -48.035620 21.209364 -3.880069 -2.392923 -3.677837 -15.005395 46.644321 -34.606151 0.493300 4.503300 12.497100 23.145841 28.076972 -0.329695 3.662604 -0.595031 1.965215 8.510691 -26.888145 -3.042364 -0.035600 -1.218400 3.350000 20.599532 8.003258 -31.733711 -10.950023 -1.080120 -7.059197 17.851405 -19.615709 16.581794 3.663100 -8.896900 6.073200 -87.451589 14.728791 6.341799 9.721756 -10.682299 -1.469796 -0.107241 1.834116 30.891299 -7.125000 0.000000 0.000000 79.073640 -15.134308 1.980349 -9.355862 12.786717 -1.484258 1.189363 1.313185 47.875958 7.125000 0.000000 0.000000 
0.626048 18.377778 9.984960 -9.468564 0.606440 16.173612 -20.850192 -48.098400 21.293251 -3.884359 -2.396381 -3.682853 -14.998172 46.682961 -34.778099 0.500900 4.537400 12.593600 23.138916 28.082120 -0.360242 3.660495 -0.601887 1.982338 8.485067 -26.818857 -3.007092 -0.035000 -1.207700 3.320500 20.659372 8.022968 -31.708298 -10.947764 -1.080027 -7.053479 17.909558 -19.585083 16.694872 3.678700 -8.870400 6.107700 -87.459039 14.740030 6.389232 9.741925 -10.705110 -1.472286 -0.129766 1.822360 30.832301 -7.125000 0.000000 0.000000 79.076830 -15.104096 1.880543 -9.350989 12.777902 -1.483395 1.190645 1.312578 47.952313 7.125000 0.000000 0.000000 
0.625206 18.376725 9.984960 -9.493872 0.593394 16.200869 -20.831159 -48.147092 21.303617 -3.888779 -2.397073 -3.677099 -14.926211 46.623619 -34.946670 0.519600 4.619700 12.827000 23.141939 28.050580 -0.424828 3.657978 -0.614205 2.006808 8.467228 -26.777805 -2.957253 -0.033200 -1.175600 3.232100 20.776102 8.041635 -31.710971 -10.956080 -1.099847 -7.075877 17.850489 -19.527635 16.838040 3.673500 -8.836200 6.142200 -87.514232 14.766908 6.300736 9.751160 -10.714395 -1.473866 -0.140588 1.820744 30.886751 -7.125000 0.000000 0.000000 79.057260 -15.124653 1.913934 -9.355196 12.787519 -1.484586 1.191071 1.308237 47.939226 7.125000 0.000000 0.000000 
0.624574 18.375988 9.984960 -9.587771 0.603888 16.181461 -20.735049 -48.142923 21.310778 -3.889797 -2.406683 -3.694211 -14.908802 46.595425 -34.957486 0.526900 4.651900 12.918400 23.244884 28.083009 -0.400665 3.657496 -0.618284 2.020539 8.461078 -26.766374 -2.999199 -0.037200 -1.245600 3.424900 21.009687 8.082329 -31.607372 -11.026354 -1.124414 -7.118552 17.800406 -19.479956 17.013951 3.668800 -8.804400 6.188000 -87.559878 14.739834 6.019224 9.721849 -10.680860 -1.470843 -0.122333 1.844266 31.124368 -7.125000 0.000000 0.000000 79.025232 -15.111616 1.898322 -9.351158 12.783780 -1.482538 1.191572 1.300958 47.971287 7.125000 0.000000 0.000000 
